<svg width="19" height="20" viewBox="0 0 19 20" fill="none" xmlns="http://www.w3.org/2000/svg">
<path fill-rule="evenodd" clip-rule="evenodd" d="M12.9342 0.674805H5.54325C2.48615 0.674805 0 3.16095 0 6.21805V18.2284C0 18.4734 0.0973364 18.7084 0.270596 18.8817C0.443857 19.055 0.678848 19.1523 0.923874 19.1523H12.9342C15.9913 19.1523 18.4775 16.6661 18.4775 13.609V6.21805C18.4775 3.16095 15.9913 0.674805 12.9342 0.674805ZM7.90862 13.2098C7.29815 13.7198 6.53443 13.9989 5.74625 14C3.85988 14 2.3252 12.4299 2.3252 10.5C2.3252 8.5701 3.85988 7 5.74625 7C6.53443 7.00108 7.29815 7.28017 7.90862 7.79023C8.5191 8.30029 8.93899 9.0101 9.09751 9.8H15.3252V11.2H14.641V13.3H13.2726V11.2H11.9041V12.6H10.5357V11.2H9.09751C8.93899 11.9899 8.5191 12.6997 7.90862 13.2098ZM7.79888 10.5C7.79888 9.3422 6.87793 8.4 5.74625 8.4C4.61456 8.4 3.69362 9.3422 3.69362 10.5C3.69362 11.6578 4.61456 12.6 5.74625 12.6C6.87793 12.6 7.79888 11.6578 7.79888 10.5Z" fill="#9D9D9D"/>
</svg>
