<svg width="67" height="60" viewBox="0 0 67 60" fill="none" xmlns="http://www.w3.org/2000/svg">
<path d="M3.50391 48.1973C2.53906 47.9199 1.83594 47.5801 1.39453 47.1777C0.957031 46.7715 0.738281 46.2715 0.738281 45.6777C0.738281 45.0059 1.00586 44.4512 1.54102 44.0137C2.08008 43.5723 2.7793 43.3516 3.63867 43.3516C4.22461 43.3516 4.74609 43.4648 5.20312 43.6914C5.66406 43.918 6.01953 44.2305 6.26953 44.6289C6.52344 45.0273 6.65039 45.4629 6.65039 45.9355H5.51953C5.51953 45.4199 5.35547 45.0156 5.02734 44.7227C4.69922 44.4258 4.23633 44.2773 3.63867 44.2773C3.08398 44.2773 2.65039 44.4004 2.33789 44.6465C2.0293 44.8887 1.875 45.2266 1.875 45.6602C1.875 46.0078 2.02148 46.3027 2.31445 46.5449C2.61133 46.7832 3.11328 47.002 3.82031 47.2012C4.53125 47.4004 5.08594 47.6211 5.48438 47.8633C5.88672 48.1016 6.18359 48.3809 6.375 48.7012C6.57031 49.0215 6.66797 49.3984 6.66797 49.832C6.66797 50.5234 6.39844 51.0781 5.85938 51.4961C5.32031 51.9102 4.59961 52.1172 3.69727 52.1172C3.11133 52.1172 2.56445 52.0059 2.05664 51.7832C1.54883 51.5566 1.15625 51.248 0.878906 50.8574C0.605469 50.4668 0.46875 50.0234 0.46875 49.5273H1.59961C1.59961 50.043 1.78906 50.4512 2.16797 50.752C2.55078 51.0488 3.06055 51.1973 3.69727 51.1973C4.29102 51.1973 4.74609 51.0762 5.0625 50.834C5.37891 50.5918 5.53711 50.2617 5.53711 49.8438C5.53711 49.4258 5.39062 49.1035 5.09766 48.877C4.80469 48.6465 4.27344 48.4199 3.50391 48.1973ZM15.3906 49.293C15.2852 50.1953 14.9512 50.8926 14.3887 51.3848C13.8301 51.873 13.0859 52.1172 12.1562 52.1172C11.1484 52.1172 10.3398 51.7559 9.73047 51.0332C9.125 50.3105 8.82227 49.3438 8.82227 48.1328V47.3125C8.82227 46.5195 8.96289 45.8223 9.24414 45.2207C9.5293 44.6191 9.93164 44.1582 10.4512 43.8379C10.9707 43.5137 11.5723 43.3516 12.2559 43.3516C13.1621 43.3516 13.8887 43.6055 14.4355 44.1133C14.9824 44.6172 15.3008 45.3164 15.3906 46.2109H14.2598C14.1621 45.5312 13.9492 45.0391 13.6211 44.7344C13.2969 44.4297 12.8418 44.2773 12.2559 44.2773C11.5371 44.2773 10.9727 44.543 10.5625 45.0742C10.1562 45.6055 9.95312 46.3613 9.95312 47.3418V48.168C9.95312 49.0938 10.1465 49.8301 10.5332 50.377C10.9199 50.9238 11.4609 51.1973 12.1562 51.1973C12.7812 51.1973 13.2598 51.0566 13.5918 50.7754C13.9277 50.4902 14.1504 49.9961 14.2598 49.293H15.3906ZM24.4883 52H23.3574V48.0566H19.0566V52H17.9316V43.4688H19.0566V47.1367H23.3574V43.4688H24.4883V52ZM32.3086 48.0566H28.6113V51.0801H32.9062V52H27.4863V43.4688H32.8477V44.3945H28.6113V47.1367H32.3086V48.0566ZM35.3066 52V43.4688H37.7148C38.457 43.4688 39.1133 43.6328 39.6836 43.9609C40.2539 44.2891 40.6934 44.7559 41.002 45.3613C41.3145 45.9668 41.4727 46.6621 41.4766 47.4473V47.9922C41.4766 48.7969 41.3203 49.502 41.0078 50.1074C40.6992 50.7129 40.2559 51.1777 39.6777 51.502C39.1035 51.8262 38.4336 51.9922 37.668 52H35.3066ZM36.4316 44.3945V51.0801H37.6152C38.4824 51.0801 39.1562 50.8105 39.6367 50.2715C40.1211 49.7324 40.3633 48.9648 40.3633 47.9688V47.4707C40.3633 46.502 40.1348 45.75 39.6777 45.2148C39.2246 44.6758 38.5801 44.4023 37.7441 44.3945H36.4316ZM50.1875 43.4688V49.2695C50.1836 50.0742 49.9297 50.7324 49.4258 51.2441C48.9258 51.7559 48.2461 52.043 47.3867 52.1055L47.0879 52.1172C46.1543 52.1172 45.4102 51.8652 44.8555 51.3613C44.3008 50.8574 44.0195 50.1641 44.0117 49.2812V43.4688H45.125V49.2461C45.125 49.8633 45.2949 50.3438 45.6348 50.6875C45.9746 51.0273 46.459 51.1973 47.0879 51.1973C47.7246 51.1973 48.2109 51.0273 48.5469 50.6875C48.8867 50.3477 49.0566 49.8691 49.0566 49.252V43.4688H50.1875ZM54.0938 51.0801H58.1367V52H52.9629V43.4688H54.0938V51.0801ZM65.2422 48.0566H61.5449V51.0801H65.8398V52H60.4199V43.4688H65.7812V44.3945H61.5449V47.1367H65.2422V48.0566Z" fill="#555555"/>
<path d="M43.5 28.5H22.5V12H43.5V28.5ZM43.5 4.5H42V1.5H39V4.5H27V1.5H24V4.5H22.5C21.7044 4.5 20.9413 4.81607 20.3787 5.37868C19.8161 5.94129 19.5 6.70435 19.5 7.5V28.5C19.5 29.2956 19.8161 30.0587 20.3787 30.6213C20.9413 31.1839 21.7044 31.5 22.5 31.5H43.5C44.2956 31.5 45.0587 31.1839 45.6213 30.6213C46.1839 30.0587 46.5 29.2956 46.5 28.5V7.5C46.5 6.70435 46.1839 5.94129 45.6213 5.37868C45.0587 4.81607 44.2956 4.5 43.5 4.5ZM39.795 16.59L38.205 15L30.885 22.32L27.705 19.14L26.115 20.73L30.885 25.5L39.795 16.59Z" fill="#555555"/>
</svg>
