<svg width="60" height="54" viewBox="0 0 60 54" fill="none" xmlns="http://www.w3.org/2000/svg">
<path d="M5.70117 46.7734H2.12695L1.32422 49H0.164062L3.42188 40.4688H4.40625L7.66992 49H6.51562L5.70117 46.7734ZM2.4668 45.8477H5.36719L3.91406 41.8574L2.4668 45.8477ZM15.7734 46.293C15.668 47.1953 15.334 47.8926 14.7715 48.3848C14.2129 48.873 13.4688 49.1172 12.5391 49.1172C11.5312 49.1172 10.7227 48.7559 10.1133 48.0332C9.50781 47.3105 9.20508 46.3438 9.20508 45.1328V44.3125C9.20508 43.5195 9.3457 42.8223 9.62695 42.2207C9.91211 41.6191 10.3145 41.1582 10.834 40.8379C11.3535 40.5137 11.9551 40.3516 12.6387 40.3516C13.5449 40.3516 14.2715 40.6055 14.8184 41.1133C15.3652 41.6172 15.6836 42.3164 15.7734 43.2109H14.6426C14.5449 42.5312 14.332 42.0391 14.0039 41.7344C13.6797 41.4297 13.2246 41.2773 12.6387 41.2773C11.9199 41.2773 11.3555 41.543 10.9453 42.0742C10.5391 42.6055 10.3359 43.3613 10.3359 44.3418V45.168C10.3359 46.0938 10.5293 46.8301 10.916 47.377C11.3027 47.9238 11.8438 48.1973 12.5391 48.1973C13.1641 48.1973 13.6426 48.0566 13.9746 47.7754C14.3105 47.4902 14.5332 46.9961 14.6426 46.293H15.7734ZM24.3398 46.293C24.2344 47.1953 23.9004 47.8926 23.3379 48.3848C22.7793 48.873 22.0352 49.1172 21.1055 49.1172C20.0977 49.1172 19.2891 48.7559 18.6797 48.0332C18.0742 47.3105 17.7715 46.3438 17.7715 45.1328V44.3125C17.7715 43.5195 17.9121 42.8223 18.1934 42.2207C18.4785 41.6191 18.8809 41.1582 19.4004 40.8379C19.9199 40.5137 20.5215 40.3516 21.2051 40.3516C22.1113 40.3516 22.8379 40.6055 23.3848 41.1133C23.9316 41.6172 24.25 42.3164 24.3398 43.2109H23.209C23.1113 42.5312 22.8984 42.0391 22.5703 41.7344C22.2461 41.4297 21.791 41.2773 21.2051 41.2773C20.4863 41.2773 19.9219 41.543 19.5117 42.0742C19.1055 42.6055 18.9023 43.3613 18.9023 44.3418V45.168C18.9023 46.0938 19.0957 46.8301 19.4824 47.377C19.8691 47.9238 20.4102 48.1973 21.1055 48.1973C21.7305 48.1973 22.209 48.0566 22.541 47.7754C22.877 47.4902 23.0996 46.9961 23.209 46.293H24.3398ZM33.1934 45.0098C33.1934 45.8457 33.0527 46.5762 32.7715 47.2012C32.4902 47.8223 32.0918 48.2969 31.5762 48.625C31.0605 48.9531 30.459 49.1172 29.7715 49.1172C29.0996 49.1172 28.5039 48.9531 27.9844 48.625C27.4648 48.293 27.0605 47.8223 26.7715 47.2129C26.4863 46.5996 26.3398 45.8906 26.332 45.0859V44.4707C26.332 43.6504 26.4746 42.9258 26.7598 42.2969C27.0449 41.668 27.4473 41.1875 27.9668 40.8555C28.4902 40.5195 29.0879 40.3516 29.7598 40.3516C30.4434 40.3516 31.0449 40.5176 31.5645 40.8496C32.0879 41.1777 32.4902 41.6562 32.7715 42.2852C33.0527 42.9102 33.1934 43.6387 33.1934 44.4707V45.0098ZM32.0742 44.459C32.0742 43.4473 31.8711 42.6719 31.4648 42.1328C31.0586 41.5898 30.4902 41.3184 29.7598 41.3184C29.0488 41.3184 28.4883 41.5898 28.0781 42.1328C27.6719 42.6719 27.4629 43.4219 27.4512 44.3828V45.0098C27.4512 45.9902 27.6562 46.7617 28.0664 47.3242C28.4805 47.8828 29.0488 48.1621 29.7715 48.1621C30.498 48.1621 31.0605 47.8984 31.459 47.3711C31.8574 46.8398 32.0625 46.0801 32.0742 45.0918V44.459ZM41.6367 40.4688V46.2695C41.6328 47.0742 41.3789 47.7324 40.875 48.2441C40.375 48.7559 39.6953 49.043 38.8359 49.1055L38.5371 49.1172C37.6035 49.1172 36.8594 48.8652 36.3047 48.3613C35.75 47.8574 35.4688 47.1641 35.4609 46.2812V40.4688H36.5742V46.2461C36.5742 46.8633 36.7441 47.3438 37.084 47.6875C37.4238 48.0273 37.9082 48.1973 38.5371 48.1973C39.1738 48.1973 39.6602 48.0273 39.9961 47.6875C40.3359 47.3477 40.5059 46.8691 40.5059 46.252V40.4688H41.6367ZM50.7188 49H49.5879L45.293 42.4258V49H44.1621V40.4688H45.293L49.5996 47.0723V40.4688H50.7188V49ZM59.1855 41.3945H56.4434V49H55.3242V41.3945H52.5879V40.4688H59.1855V41.3945Z" fill="#114483"/>
<path d="M15.75 25.5V30H27.75V27.165H18.6V25.5C18.6 24.54 23.295 22.35 27.75 22.35C29.19 22.365 30.615 22.56 31.995 22.92L34.275 20.64C32.175 19.935 30 19.545 27.75 19.5C23.745 19.5 15.75 21.495 15.75 25.5ZM27.75 6C24.435 6 21.75 8.685 21.75 12C21.75 15.315 24.435 18 27.75 18C31.065 18 33.75 15.315 33.75 12C33.75 8.685 31.065 6 27.75 6ZM27.75 15C26.1 15 24.75 13.665 24.75 12C24.75 10.335 26.1 9 27.75 9C29.4 9 30.75 10.35 30.75 12C30.75 13.65 29.415 15 27.75 15ZM45.3 20.025L43.8 21.525L40.725 18.525L42.225 17.025C42.3792 16.8738 42.5866 16.7892 42.8025 16.7892C43.0184 16.7892 43.2258 16.8738 43.38 17.025L45.3 18.945C45.615 19.26 45.615 19.785 45.3 20.1V20.025ZM30.75 28.41L39.84 19.32L42.915 22.32L33.915 31.425H30.75V28.41Z" fill="#114483"/>
</svg>
