<svg width="85" height="24" viewBox="0 0 85 24" fill="none" xmlns="http://www.w3.org/2000/svg">
<path fill-rule="evenodd" clip-rule="evenodd" d="M13.609 2.6748H6.21805C3.16095 2.6748 0.674805 5.16095 0.674805 8.21805V20.2284C0.674805 20.4734 0.772141 20.7084 0.945401 20.8817C1.11866 21.055 1.35365 21.1523 1.59868 21.1523H13.609C16.6661 21.1523 19.1523 18.6661 19.1523 15.609V8.21805C19.1523 5.16095 16.6661 2.6748 13.609 2.6748ZM4.16675 16.6666V14.9166C4.16675 13.3591 7.27591 12.5833 8.83341 12.5833C9.70841 12.6008 10.5542 12.7525 11.3709 13.0266L10.4842 13.9133C9.94758 13.7733 9.39341 13.6975 8.83341 13.6916C7.10091 13.6916 5.27508 14.5433 5.27508 14.9166V15.5641H8.83341V16.6666H4.16675ZM6.50008 9.66665C6.50008 8.37748 7.54425 7.33331 8.83341 7.33331C10.1226 7.33331 11.1667 8.37748 11.1667 9.66665C11.1667 10.9558 10.1226 12 8.83341 12C7.54425 12 6.50008 10.9558 6.50008 9.66665ZM7.66675 9.66665C7.66675 10.3141 8.19175 10.8333 8.83341 10.8333C9.48091 10.8333 10.0001 10.3083 10.0001 9.66665C10.0001 9.02498 9.47508 8.49998 8.83341 8.49998C8.19175 8.49998 7.66675 9.01915 7.66675 9.66665ZM15.0751 13.3708L15.6584 12.7875V12.8166C15.7809 12.6941 15.7809 12.49 15.6584 12.3675L14.9117 11.6208C14.8518 11.562 14.7711 11.5291 14.6872 11.5291C14.6032 11.5291 14.5226 11.562 14.4626 11.6208L13.8792 12.2041L15.0751 13.3708ZM13.5351 12.5133L10.0001 16.0483V17.2208H11.2309L14.7309 13.68L13.5351 12.5133Z" fill="#114483"/>
<path d="M32.6016 14.0312H27.8359L26.7656 17H25.2188L29.5625 5.625H30.875L35.2266 17H33.6875L32.6016 14.0312ZM28.2891 12.7969H32.1562L30.2188 7.47656L28.2891 12.7969ZM39.9219 15.9766C40.4375 15.9766 40.888 15.8203 41.2734 15.5078C41.6589 15.1953 41.8724 14.8047 41.9141 14.3359H43.2812C43.2552 14.8203 43.0885 15.2812 42.7812 15.7188C42.474 16.1562 42.0625 16.5052 41.5469 16.7656C41.0365 17.026 40.4948 17.1562 39.9219 17.1562C38.7708 17.1562 37.8542 16.7734 37.1719 16.0078C36.4948 15.237 36.1562 14.1849 36.1562 12.8516V12.6094C36.1562 11.7865 36.3073 11.0547 36.6094 10.4141C36.9115 9.77344 37.3438 9.27604 37.9062 8.92188C38.474 8.56771 39.1432 8.39062 39.9141 8.39062C40.862 8.39062 41.6484 8.67448 42.2734 9.24219C42.9036 9.8099 43.2396 10.5469 43.2812 11.4531H41.9141C41.8724 10.9062 41.6641 10.4583 41.2891 10.1094C40.9193 9.75521 40.4609 9.57812 39.9141 9.57812C39.1797 9.57812 38.6094 9.84375 38.2031 10.375C37.8021 10.901 37.6016 11.6641 37.6016 12.6641V12.9375C37.6016 13.9115 37.8021 14.6615 38.2031 15.1875C38.6042 15.7135 39.1771 15.9766 39.9219 15.9766ZM48.2969 15.9766C48.8125 15.9766 49.263 15.8203 49.6484 15.5078C50.0339 15.1953 50.2474 14.8047 50.2891 14.3359H51.6562C51.6302 14.8203 51.4635 15.2812 51.1562 15.7188C50.849 16.1562 50.4375 16.5052 49.9219 16.7656C49.4115 17.026 48.8698 17.1562 48.2969 17.1562C47.1458 17.1562 46.2292 16.7734 45.5469 16.0078C44.8698 15.237 44.5312 14.1849 44.5312 12.8516V12.6094C44.5312 11.7865 44.6823 11.0547 44.9844 10.4141C45.2865 9.77344 45.7188 9.27604 46.2812 8.92188C46.849 8.56771 47.5182 8.39062 48.2891 8.39062C49.237 8.39062 50.0234 8.67448 50.6484 9.24219C51.2786 9.8099 51.6146 10.5469 51.6562 11.4531H50.2891C50.2474 10.9062 50.0391 10.4583 49.6641 10.1094C49.2943 9.75521 48.8359 9.57812 48.2891 9.57812C47.5547 9.57812 46.9844 9.84375 46.5781 10.375C46.1771 10.901 45.9766 11.6641 45.9766 12.6641V12.9375C45.9766 13.9115 46.1771 14.6615 46.5781 15.1875C46.9792 15.7135 47.5521 15.9766 48.2969 15.9766ZM52.8984 12.6953C52.8984 11.8672 53.0599 11.1224 53.3828 10.4609C53.7109 9.79948 54.1641 9.28906 54.7422 8.92969C55.3255 8.57031 55.9896 8.39062 56.7344 8.39062C57.8854 8.39062 58.8151 8.78906 59.5234 9.58594C60.237 10.3828 60.5938 11.4427 60.5938 12.7656V12.8672C60.5938 13.6901 60.4349 14.4297 60.1172 15.0859C59.8047 15.737 59.3542 16.2448 58.7656 16.6094C58.1823 16.974 57.5104 17.1562 56.75 17.1562C55.6042 17.1562 54.6745 16.7578 53.9609 15.9609C53.2526 15.1641 52.8984 14.1094 52.8984 12.7969V12.6953ZM54.3516 12.8672C54.3516 13.8047 54.5677 14.5573 55 15.125C55.4375 15.6927 56.0208 15.9766 56.75 15.9766C57.4844 15.9766 58.0677 15.6901 58.5 15.1172C58.9323 14.5391 59.1484 13.7318 59.1484 12.6953C59.1484 11.7682 58.9271 11.0182 58.4844 10.4453C58.0469 9.86719 57.4635 9.57812 56.7344 9.57812C56.0208 9.57812 55.4453 9.86198 55.0078 10.4297C54.5703 10.9974 54.3516 11.8099 54.3516 12.8672ZM67.625 16.1641C67.0625 16.8255 66.237 17.1562 65.1484 17.1562C64.2474 17.1562 63.5599 16.8958 63.0859 16.375C62.6172 15.849 62.3802 15.0729 62.375 14.0469V8.54688H63.8203V14.0078C63.8203 15.2891 64.3411 15.9297 65.3828 15.9297C66.487 15.9297 67.2214 15.5182 67.5859 14.6953V8.54688H69.0312V17H67.6562L67.625 16.1641ZM72.6016 8.54688L72.6484 9.60938C73.2943 8.79688 74.138 8.39062 75.1797 8.39062C76.9661 8.39062 77.8672 9.39844 77.8828 11.4141V17H76.4375V11.4062C76.4323 10.7969 76.2917 10.3464 76.0156 10.0547C75.7448 9.76302 75.3203 9.61719 74.7422 9.61719C74.2734 9.61719 73.862 9.74219 73.5078 9.99219C73.1536 10.2422 72.8776 10.5703 72.6797 10.9766V17H71.2344V8.54688H72.6016ZM82.0234 6.5V8.54688H83.6016V9.66406H82.0234V14.9062C82.0234 15.2448 82.0938 15.5 82.2344 15.6719C82.375 15.8385 82.6146 15.9219 82.9531 15.9219C83.1198 15.9219 83.349 15.8906 83.6406 15.8281V17C83.2604 17.1042 82.8906 17.1562 82.5312 17.1562C81.8854 17.1562 81.3984 16.9609 81.0703 16.5703C80.7422 16.1797 80.5781 15.625 80.5781 14.9062V9.66406H79.0391V8.54688H80.5781V6.5H82.0234Z" fill="#114483"/>
</svg>
