<svg width="91" height="24" viewBox="0 0 91 24" fill="none" xmlns="http://www.w3.org/2000/svg">
<path fill-rule="evenodd" clip-rule="evenodd" d="M5.54325 3H12.9342C15.9913 3 18.4775 5.48615 18.4775 8.54325V15.9342C18.4775 18.9913 15.9913 21.4775 12.9342 21.4775H0.923874C0.678848 21.4775 0.443857 21.3802 0.270596 21.2069C0.0973364 21.0336 0 20.7986 0 20.5536V8.54325C0 5.48615 2.48615 3 5.54325 3ZM6.10722 13.4439L8.16556 15.5884L11.8944 11.7082L11.1083 10.889L8.16778 13.9534L6.89333 12.6247L6.10722 13.4439ZM14 16.1673V8.64098C14 8.33389 13.8829 8.03938 13.6746 7.82223C13.4662 7.60508 13.1836 7.48309 12.8889 7.48309H12.3333V6.3252H11.2222V7.48309H6.77778V6.3252H5.66667V7.48309H5.11111C4.81643 7.48309 4.53381 7.60508 4.32544 7.82223C4.11706 8.03938 4 8.33389 4 8.64098V16.1673C4 16.4744 4.11706 16.7689 4.32544 16.9861C4.53381 17.2032 4.81643 17.3252 5.11111 17.3252H12.8889C13.1836 17.3252 13.4662 17.2032 13.6746 16.9861C13.8829 16.7689 14 16.4744 14 16.1673ZM5.11111 9.79888H12.8889V16.1673H5.11111V9.79888Z" fill="#9D9D9D"/>
<path d="M28.9971 11.9297C27.7106 11.5599 26.7731 11.1068 26.1846 10.5703C25.6012 10.0286 25.3096 9.36198 25.3096 8.57031C25.3096 7.67448 25.6663 6.9349 26.3799 6.35156C27.0986 5.76302 28.0309 5.46875 29.1768 5.46875C29.958 5.46875 30.6533 5.61979 31.2627 5.92188C31.8773 6.22396 32.3512 6.64062 32.6846 7.17188C33.0231 7.70312 33.1924 8.28385 33.1924 8.91406H31.6846C31.6846 8.22656 31.4658 7.6875 31.0283 7.29688C30.5908 6.90104 29.9736 6.70312 29.1768 6.70312C28.4372 6.70312 27.859 6.86719 27.4424 7.19531C27.0309 7.51823 26.8252 7.96875 26.8252 8.54688C26.8252 9.01042 27.0205 9.40365 27.4111 9.72656C27.807 10.0443 28.4762 10.3359 29.4189 10.6016C30.3669 10.8672 31.1064 11.1615 31.6377 11.4844C32.1742 11.8021 32.57 12.1745 32.8252 12.6016C33.0856 13.0286 33.2158 13.5312 33.2158 14.1094C33.2158 15.0312 32.8564 15.7708 32.1377 16.3281C31.4189 16.8802 30.458 17.1562 29.2549 17.1562C28.4736 17.1562 27.7445 17.0078 27.0674 16.7109C26.3903 16.4089 25.8669 15.9974 25.4971 15.4766C25.1325 14.9557 24.9502 14.3646 24.9502 13.7031H26.458C26.458 14.3906 26.7106 14.9349 27.2158 15.3359C27.7262 15.7318 28.4059 15.9297 29.2549 15.9297C30.0465 15.9297 30.6533 15.7682 31.0752 15.4453C31.4971 15.1224 31.708 14.6823 31.708 14.125C31.708 13.5677 31.5127 13.138 31.1221 12.8359C30.7314 12.5286 30.0231 12.2266 28.9971 11.9297ZM38.3096 15.9766C38.8252 15.9766 39.2757 15.8203 39.6611 15.5078C40.0465 15.1953 40.2601 14.8047 40.3018 14.3359H41.6689C41.6429 14.8203 41.4762 15.2812 41.1689 15.7188C40.8617 16.1562 40.4502 16.5052 39.9346 16.7656C39.4242 17.026 38.8825 17.1562 38.3096 17.1562C37.1585 17.1562 36.2419 16.7734 35.5596 16.0078C34.8825 15.237 34.5439 14.1849 34.5439 12.8516V12.6094C34.5439 11.7865 34.695 11.0547 34.9971 10.4141C35.2992 9.77344 35.7314 9.27604 36.2939 8.92188C36.8617 8.56771 37.5309 8.39062 38.3018 8.39062C39.2497 8.39062 40.0361 8.67448 40.6611 9.24219C41.2913 9.8099 41.6273 10.5469 41.6689 11.4531H40.3018C40.2601 10.9062 40.0518 10.4583 39.6768 10.1094C39.307 9.75521 38.8486 9.57812 38.3018 9.57812C37.5674 9.57812 36.9971 9.84375 36.5908 10.375C36.1898 10.901 35.9893 11.6641 35.9893 12.6641V12.9375C35.9893 13.9115 36.1898 14.6615 36.5908 15.1875C36.9919 15.7135 37.5648 15.9766 38.3096 15.9766ZM44.7393 9.57031C45.3799 8.78385 46.2132 8.39062 47.2393 8.39062C49.0257 8.39062 49.9268 9.39844 49.9424 11.4141V17H48.4971V11.4062C48.4919 10.7969 48.3512 10.3464 48.0752 10.0547C47.8044 9.76302 47.3799 9.61719 46.8018 9.61719C46.333 9.61719 45.9215 9.74219 45.5674 9.99219C45.2132 10.2422 44.9372 10.5703 44.7393 10.9766V17H43.2939V5H44.7393V9.57031ZM55.6143 17.1562C54.4684 17.1562 53.5361 16.7812 52.8174 16.0312C52.0986 15.276 51.7393 14.2682 51.7393 13.0078V12.7422C51.7393 11.9036 51.8981 11.1562 52.2158 10.5C52.5387 9.83854 52.9867 9.32292 53.5596 8.95312C54.1377 8.57812 54.7627 8.39062 55.4346 8.39062C56.5335 8.39062 57.3877 8.7526 57.9971 9.47656C58.6064 10.2005 58.9111 11.237 58.9111 12.5859V13.1875H53.1846C53.2054 14.0208 53.4476 14.6953 53.9111 15.2109C54.3799 15.7214 54.9736 15.9766 55.6924 15.9766C56.2028 15.9766 56.6351 15.8724 56.9893 15.6641C57.3434 15.4557 57.6533 15.1797 57.9189 14.8359L58.8018 15.5234C58.0934 16.612 57.0309 17.1562 55.6143 17.1562ZM55.4346 9.57812C54.8512 9.57812 54.3617 9.79167 53.9658 10.2188C53.57 10.6406 53.3252 11.2344 53.2314 12H57.4658V11.8906C57.4242 11.1562 57.2262 10.5885 56.8721 10.1875C56.5179 9.78125 56.0387 9.57812 55.4346 9.57812ZM60.2393 12.7031C60.2393 11.4062 60.5465 10.3646 61.1611 9.57812C61.7757 8.78646 62.5804 8.39062 63.5752 8.39062C64.5648 8.39062 65.3486 8.72917 65.9268 9.40625V5H67.3721V17H66.0439L65.9736 16.0938C65.3955 16.8021 64.5908 17.1562 63.5596 17.1562C62.5804 17.1562 61.7809 16.7552 61.1611 15.9531C60.5465 15.151 60.2393 14.1042 60.2393 12.8125V12.7031ZM61.6846 12.8672C61.6846 13.8255 61.8825 14.5755 62.2783 15.1172C62.6742 15.6589 63.221 15.9297 63.9189 15.9297C64.8356 15.9297 65.5049 15.5182 65.9268 14.6953V10.8125C65.4945 10.0156 64.8304 9.61719 63.9346 9.61719C63.2262 9.61719 62.6742 9.89062 62.2783 10.4375C61.8825 10.9844 61.6846 11.7943 61.6846 12.8672ZM74.8408 16.1641C74.2783 16.8255 73.4528 17.1562 72.3643 17.1562C71.4632 17.1562 70.7757 16.8958 70.3018 16.375C69.833 15.849 69.596 15.0729 69.5908 14.0469V8.54688H71.0361V14.0078C71.0361 15.2891 71.557 15.9297 72.5986 15.9297C73.7028 15.9297 74.4372 15.5182 74.8018 14.6953V8.54688H76.2471V17H74.8721L74.8408 16.1641ZM80.0205 17H78.5752V5H80.0205V17ZM85.8486 17.1562C84.7028 17.1562 83.7705 16.7812 83.0518 16.0312C82.333 15.276 81.9736 14.2682 81.9736 13.0078V12.7422C81.9736 11.9036 82.1325 11.1562 82.4502 10.5C82.7731 9.83854 83.221 9.32292 83.7939 8.95312C84.3721 8.57812 84.9971 8.39062 85.6689 8.39062C86.7679 8.39062 87.6221 8.7526 88.2314 9.47656C88.8408 10.2005 89.1455 11.237 89.1455 12.5859V13.1875H83.4189C83.4398 14.0208 83.682 14.6953 84.1455 15.2109C84.6143 15.7214 85.208 15.9766 85.9268 15.9766C86.4372 15.9766 86.8695 15.8724 87.2236 15.6641C87.5778 15.4557 87.8877 15.1797 88.1533 14.8359L89.0361 15.5234C88.3278 16.612 87.2653 17.1562 85.8486 17.1562ZM85.6689 9.57812C85.0856 9.57812 84.596 9.79167 84.2002 10.2188C83.8044 10.6406 83.5596 11.2344 83.4658 12H87.7002V11.8906C87.6585 11.1562 87.4606 10.5885 87.1064 10.1875C86.7523 9.78125 86.2731 9.57812 85.6689 9.57812Z" fill="#9D9D9D"/>
</svg>
