<svg width="136" height="22" viewBox="0 0 136 22" fill="none" xmlns="http://www.w3.org/2000/svg">
<g clip-path="url(#clip0)">
<g clip-path="url(#clip1)">
<path d="M3.33333 15H0.666667C0.298333 15 0 15.2983 0 15.6666V21C0 21.3683 0.298333 21.6666 0.666667 21.6666H3.33333C3.70167 21.6666 4 21.3683 4 21V15.6666C4 15.2983 3.70167 15 3.33333 15ZM2.66667 20.3333H1.33333V16.3333H2.66667V20.3333ZM23.3333 8.33331H20.6667C20.2983 8.33331 20 8.63165 20 8.99998V21C20 21.3683 20.2983 21.6666 20.6667 21.6666H23.3333C23.7017 21.6666 24 21.3683 24 21V8.99998C24 8.63165 23.7017 8.33331 23.3333 8.33331ZM22.6667 20.3333H21.3333V9.66665H22.6667V20.3333ZM20.9487 4.02831C21.255 4.21831 21.6129 4.33331 22 4.33331C23.1046 4.33331 24 3.4379 24 2.33331C24 1.22873 23.1046 0.333313 22 0.333313C20.8954 0.333313 20 1.22873 20 2.33331C20 2.5629 20.0467 2.77956 20.1179 2.98498L16.3846 5.97165C16.0783 5.78123 15.7204 5.66623 15.3333 5.66623C14.9463 5.66623 14.5883 5.78123 14.2821 5.97165L10.5487 2.98498C10.62 2.77998 10.6667 2.5629 10.6667 2.33331C10.6667 1.22873 9.77125 0.333313 8.66667 0.333313C7.56208 0.333313 6.66667 1.22873 6.66667 2.33331C6.66667 2.64165 6.74208 2.92998 6.86667 3.19081L2.8575 7.19998C2.59667 7.0754 2.30833 6.99998 2 6.99998C0.895417 6.99998 0 7.8954 0 8.99998C0 10.1046 0.895417 11 2 11C3.10458 11 4 10.1046 4 8.99998C4 8.69165 3.92458 8.40331 3.8 8.14248L7.80917 4.13331C8.07 4.2579 8.35833 4.33331 8.66667 4.33331C9.05375 4.33331 9.41167 4.21831 9.71792 4.0279L13.4513 7.01456C13.38 7.21998 13.3333 7.43706 13.3333 7.66665C13.3333 8.77123 14.2288 9.66665 15.3333 9.66665C16.4379 9.66665 17.3333 8.77123 17.3333 7.66665C17.3333 7.43706 17.2867 7.21998 17.2154 7.01456L20.9487 4.02831ZM22 1.66665C22.3675 1.66665 22.6667 1.96581 22.6667 2.33331C22.6667 2.70081 22.3675 2.99998 22 2.99998C21.6325 2.99998 21.3333 2.70081 21.3333 2.33331C21.3333 1.96581 21.6325 1.66665 22 1.66665ZM2 9.66665C1.6325 9.66665 1.33333 9.36748 1.33333 8.99998C1.33333 8.63248 1.6325 8.33331 2 8.33331C2.3675 8.33331 2.66667 8.63248 2.66667 8.99998C2.66667 9.36748 2.3675 9.66665 2 9.66665ZM8.66667 2.99998C8.29917 2.99998 8 2.70081 8 2.33331C8 1.96581 8.29917 1.66665 8.66667 1.66665C9.03417 1.66665 9.33333 1.96581 9.33333 2.33331C9.33333 2.70081 9.03417 2.99998 8.66667 2.99998ZM15.3333 8.33331C14.9658 8.33331 14.6667 8.03415 14.6667 7.66665C14.6667 7.29915 14.9658 6.99998 15.3333 6.99998C15.7008 6.99998 16 7.29915 16 7.66665C16 8.03415 15.7008 8.33331 15.3333 8.33331ZM10 8.33331H7.33333C6.965 8.33331 6.66667 8.63165 6.66667 8.99998V21C6.66667 21.3683 6.965 21.6666 7.33333 21.6666H10C10.3683 21.6666 10.6667 21.3683 10.6667 21V8.99998C10.6667 8.63165 10.3683 8.33331 10 8.33331ZM9.33333 20.3333H8V9.66665H9.33333V20.3333ZM16.6667 13.6666H14C13.6317 13.6666 13.3333 13.965 13.3333 14.3333V21C13.3333 21.3683 13.6317 21.6666 14 21.6666H16.6667C17.035 21.6666 17.3333 21.3683 17.3333 21V14.3333C17.3333 13.965 17.035 13.6666 16.6667 13.6666ZM16 20.3333H14.6667V15H16V20.3333Z" fill="white"/>
</g>
<path d="M50.1787 12.3232H47.1729V17.5H45.4766V4.70311H49.7129C51.1543 4.70311 52.2617 5.03123 53.0352 5.68748C53.8145 6.34373 54.2041 7.29881 54.2041 8.55272C54.2041 9.34959 53.9873 10.0439 53.5537 10.6357C53.126 11.2275 52.5283 11.6699 51.7607 11.9629L54.7666 17.3945V17.5H52.9561L50.1787 12.3232ZM47.1729 10.9433H49.7656C50.6035 10.9433 51.2686 10.7265 51.7607 10.2929C52.2588 9.85936 52.5078 9.27928 52.5078 8.55272C52.5078 7.7617 52.2705 7.15525 51.7959 6.73338C51.3271 6.3115 50.6475 6.09764 49.7568 6.09178H47.1729V10.9433ZM60.2686 17.6758C58.9795 17.6758 57.9307 17.2539 57.1221 16.4101C56.3135 15.5605 55.9092 14.4267 55.9092 13.0088V12.7099C55.9092 11.7666 56.0879 10.9258 56.4453 10.1875C56.8086 9.44334 57.3125 8.86326 57.957 8.44725C58.6074 8.02537 59.3105 7.81443 60.0664 7.81443C61.3027 7.81443 62.2637 8.22166 62.9492 9.03611C63.6348 9.85057 63.9775 11.0166 63.9775 12.5342V13.2109H57.5352C57.5586 14.1484 57.8311 14.9072 58.3525 15.4873C58.8799 16.0615 59.5479 16.3486 60.3564 16.3486C60.9307 16.3486 61.417 16.2314 61.8154 15.9971C62.2139 15.7627 62.5625 15.4521 62.8613 15.0654L63.8545 15.8388C63.0576 17.0635 61.8623 17.6758 60.2686 17.6758ZM60.0664 9.15037C59.4102 9.15037 58.8594 9.39061 58.4141 9.87107C57.9688 10.3457 57.6934 11.0137 57.5879 11.875H62.3516V11.7519C62.3047 10.9258 62.082 10.2871 61.6836 9.83592C61.2852 9.37889 60.7461 9.15037 60.0664 9.15037ZM73.9004 12.8506C73.9004 14.2978 73.5693 15.4638 72.9072 16.3486C72.2451 17.2334 71.3486 17.6758 70.2178 17.6758C69.0635 17.6758 68.1553 17.3096 67.4932 16.5771V21.1562H65.8672V7.99022H67.3525L67.4316 9.0449C68.0938 8.22459 69.0137 7.81443 70.1914 7.81443C71.334 7.81443 72.2363 8.2451 72.8984 9.10643C73.5664 9.96775 73.9004 11.166 73.9004 12.7012V12.8506ZM72.2744 12.666C72.2744 11.5937 72.0459 10.7471 71.5889 10.126C71.1318 9.50486 70.5049 9.19432 69.708 9.19432C68.7236 9.19432 67.9854 9.63084 67.4932 10.5039V15.0478C67.9795 15.915 68.7236 16.3486 69.7256 16.3486C70.5049 16.3486 71.123 16.041 71.5801 15.4258C72.043 14.8047 72.2744 13.8847 72.2744 12.666ZM75.5439 12.6572C75.5439 11.7256 75.7256 10.8877 76.0889 10.1435C76.458 9.39939 76.9678 8.82518 77.6182 8.42088C78.2744 8.01658 79.0215 7.81443 79.8594 7.81443C81.1543 7.81443 82.2002 8.26268 82.9971 9.15916C83.7998 10.0556 84.2012 11.248 84.2012 12.7363V12.8506C84.2012 13.7763 84.0225 14.6084 83.665 15.3467C83.3135 16.0791 82.8066 16.6504 82.1445 17.0605C81.4883 17.4707 80.7324 17.6758 79.877 17.6758C78.5879 17.6758 77.542 17.2275 76.7393 16.331C75.9424 15.4346 75.5439 14.248 75.5439 12.7715V12.6572ZM77.1787 12.8506C77.1787 13.9053 77.4219 14.7519 77.9082 15.3906C78.4004 16.0293 79.0566 16.3486 79.877 16.3486C80.7031 16.3486 81.3594 16.0263 81.8457 15.3818C82.332 14.7314 82.5752 13.8232 82.5752 12.6572C82.5752 11.6142 82.3262 10.7705 81.8281 10.126C81.3359 9.47557 80.6797 9.15037 79.8594 9.15037C79.0566 9.15037 78.4092 9.46971 77.917 10.1084C77.4248 10.7471 77.1787 11.6611 77.1787 12.8506ZM90.8369 9.4492C90.5908 9.40818 90.3242 9.38768 90.0371 9.38768C88.9707 9.38768 88.2471 9.84178 87.8662 10.75V17.5H86.2402V7.99022H87.8223L87.8486 9.08885C88.3818 8.23924 89.1377 7.81443 90.1162 7.81443C90.4326 7.81443 90.6729 7.85545 90.8369 7.93748V9.4492ZM94.9854 5.68748V7.99022H96.7607V9.24705H94.9854V15.1445C94.9854 15.5254 95.0645 15.8125 95.2227 16.0058C95.3809 16.1933 95.6504 16.2871 96.0312 16.2871C96.2188 16.2871 96.4766 16.2519 96.8047 16.1816V17.5C96.377 17.6172 95.9609 17.6758 95.5566 17.6758C94.8301 17.6758 94.2822 17.456 93.9131 17.0166C93.5439 16.5771 93.3594 15.9531 93.3594 15.1445V9.24705H91.6279V7.99022H93.3594V5.68748H94.9854Z" fill="white"/>
<path d="M126.417 15.2586L119.741 8.58272C119.42 8.26087 119.42 7.73875 119.741 7.41689L120.52 6.63819C120.842 6.31667 121.362 6.31633 121.685 6.63681L127 11.9277L132.315 6.63716C132.638 6.31633 133.158 6.31702 133.48 6.63853L134.259 7.41724C134.58 7.7391 134.58 8.26121 134.259 8.58307L127.583 15.2586C127.261 15.5804 126.739 15.5804 126.417 15.2586Z" fill="white"/>
</g>
<defs>
<clipPath id="clip0">
<rect width="136" height="21.3333" fill="white" transform="translate(0 0.333313)"/>
</clipPath>
<clipPath id="clip1">
<rect width="24" height="21.3333" fill="white" transform="translate(0 0.333313)"/>
</clipPath>
</defs>
</svg>
