<svg width="127" height="22" viewBox="0 0 127 22" fill="none" xmlns="http://www.w3.org/2000/svg">
<g clip-path="url(#clip0)">
<g clip-path="url(#clip1)">
<path d="M23.3333 6.66667C23.25 6.66667 23.1667 6.68333 23.0833 6.71667L16 9.33333L15.5708 9.18333C16.5417 7.72917 17.3333 6.21667 17.3333 5.125C17.3333 2.29167 14.9458 0 12 0C9.05417 0 6.66667 2.29583 6.66667 5.125C6.66667 5.61667 6.83333 6.2 7.1 6.81667L0.8375 9C0.333333 9.2 0 9.69167 0 10.2375V20.6667C0 21.05 0.3125 21.3333 0.666667 21.3333C0.75 21.3333 0.833333 21.3167 0.916667 21.2833L8 18.6667L15.1667 21.1958C15.7083 21.375 16.2917 21.3792 16.8333 21.2042L23.1625 19C23.6708 18.7958 24 18.3083 24 17.7625V7.33333C24 6.95 23.6875 6.66667 23.3333 6.66667ZM7.33333 17.4917L1.32917 19.7083L1.275 10.2542L7.33333 8.15V17.4917ZM12 1.33333C14.2042 1.33333 16 3.03333 16 5.125C16 6.25 14.4125 8.82917 12 11.6583C9.5875 8.82917 8 6.25 8 5.125C8 3.03333 9.79583 1.33333 12 1.33333ZM15.3333 19.8417L8.66667 17.4875V9.53333C9.68333 11.0042 10.8375 12.3667 11.4875 13.1042C11.6208 13.2583 11.8125 13.3333 12 13.3333C12.1875 13.3333 12.375 13.2583 12.5125 13.1042C13.0458 12.5 13.9167 11.475 14.775 10.3167L15.3333 10.5125V19.8417ZM16.6667 19.85V10.5083L22.6708 8.29167L22.725 17.7458L16.6667 19.85ZM13 5.33333C13 4.77917 12.55 4.33333 12 4.33333C11.45 4.33333 11 4.77917 11 5.33333C11 5.88333 11.45 6.33333 12 6.33333C12.55 6.33333 13 5.8875 13 5.33333Z" fill="white"/>
</g>
<path d="M47.665 4.36978L51.8486 14.8112L56.0322 4.36978H58.2207V17.1667H56.5332V12.1833L56.6914 6.80435L52.4902 17.1667H51.1982L47.0059 6.83072L47.1729 12.1833V17.1667H45.4854V4.36978H47.665ZM66.8164 17.1667C66.7227 16.9792 66.6465 16.6452 66.5879 16.1647C65.832 16.9499 64.9297 17.3424 63.8809 17.3424C62.9434 17.3424 62.1729 17.0788 61.5693 16.5514C60.9717 16.0182 60.6729 15.3444 60.6729 14.5299C60.6729 13.5397 61.0479 12.7721 61.7979 12.2272C62.5537 11.6764 63.6143 11.401 64.9795 11.401H66.5615V10.654C66.5615 10.0856 66.3916 9.63443 66.0518 9.30045C65.7119 8.9606 65.2109 8.79068 64.5488 8.79068C63.9688 8.79068 63.4824 8.93716 63.0898 9.23013C62.6973 9.5231 62.501 9.87759 62.501 10.2936H60.8662C60.8662 9.819 61.0332 9.36197 61.3672 8.92252C61.707 8.4772 62.1641 8.12564 62.7383 7.86783C63.3184 7.61002 63.9541 7.48111 64.6455 7.48111C65.7412 7.48111 66.5996 7.7565 67.2207 8.30728C67.8418 8.8522 68.1641 9.60513 68.1875 10.5661V14.943C68.1875 15.8161 68.2988 16.5104 68.5215 17.026V17.1667H66.8164ZM64.1182 15.9274C64.6279 15.9274 65.1113 15.7956 65.5684 15.5319C66.0254 15.2682 66.3564 14.9254 66.5615 14.5036V12.5524H65.2871C63.2949 12.5524 62.2988 13.1354 62.2988 14.3014C62.2988 14.8112 62.4688 15.2096 62.8086 15.4967C63.1484 15.7838 63.585 15.9274 64.1182 15.9274ZM78.7695 12.5172C78.7695 13.9645 78.4385 15.1305 77.7764 16.0153C77.1143 16.9001 76.2178 17.3424 75.0869 17.3424C73.9326 17.3424 73.0244 16.9762 72.3623 16.2438V20.8229H70.7363V7.65689H72.2217L72.3008 8.71158C72.9629 7.89127 73.8828 7.48111 75.0605 7.48111C76.2031 7.48111 77.1055 7.91177 77.7676 8.7731C78.4355 9.63443 78.7695 10.8327 78.7695 12.3678V12.5172ZM77.1436 12.3327C77.1436 11.2604 76.915 10.4137 76.458 9.79263C76.001 9.17154 75.374 8.86099 74.5771 8.86099C73.5928 8.86099 72.8545 9.29752 72.3623 10.1706V14.7145C72.8486 15.5817 73.5928 16.0153 74.5947 16.0153C75.374 16.0153 75.9922 15.7077 76.4492 15.0924C76.9121 14.4713 77.1436 13.5514 77.1436 12.3327ZM86.3809 14.6442C86.3809 14.2047 86.2139 13.8649 85.8799 13.6247C85.5518 13.3786 84.9746 13.1676 84.1484 12.9919C83.3281 12.8161 82.6748 12.6051 82.1885 12.359C81.708 12.1129 81.3506 11.82 81.1162 11.4801C80.8877 11.1403 80.7734 10.736 80.7734 10.2672C80.7734 9.48795 81.1016 8.82877 81.7578 8.2897C82.4199 7.75064 83.2637 7.48111 84.2891 7.48111C85.3672 7.48111 86.2402 7.75943 86.9082 8.31607C87.582 8.87271 87.9189 9.58463 87.9189 10.4518H86.2842C86.2842 10.0065 86.0938 9.62271 85.7129 9.30045C85.3379 8.97818 84.8633 8.81705 84.2891 8.81705C83.6973 8.81705 83.2344 8.94595 82.9004 9.20377C82.5664 9.46158 82.3994 9.79849 82.3994 10.2145C82.3994 10.6071 82.5547 10.903 82.8652 11.1022C83.1758 11.3014 83.7354 11.4919 84.5439 11.6735C85.3584 11.8551 86.0176 12.0719 86.5215 12.3239C87.0254 12.5758 87.3975 12.8805 87.6377 13.2379C87.8838 13.5895 88.0068 14.0202 88.0068 14.5299C88.0068 15.3795 87.667 16.0622 86.9873 16.5778C86.3076 17.0876 85.4258 17.3424 84.3418 17.3424C83.5801 17.3424 82.9062 17.2077 82.3203 16.9381C81.7344 16.6686 81.2744 16.2936 80.9404 15.8131C80.6123 15.3268 80.4482 14.8024 80.4482 14.2399H82.0742C82.1035 14.7848 82.3203 15.2184 82.7246 15.5407C83.1348 15.8571 83.6738 16.0153 84.3418 16.0153C84.957 16.0153 85.4492 15.8922 85.8184 15.6461C86.1934 15.3942 86.3809 15.0602 86.3809 14.6442Z" fill="white"/>
<path d="M117.417 14.9253L110.741 8.2494C110.42 7.92754 110.42 7.40543 110.741 7.08357L111.52 6.30486C111.842 5.98335 112.362 5.98301 112.685 6.30349L118 11.5944L123.315 6.30383C123.638 5.98301 124.158 5.98369 124.48 6.30521L125.259 7.08391C125.58 7.40577 125.58 7.92789 125.259 8.24974L118.583 14.9253C118.261 15.2471 117.739 15.2471 117.417 14.9253Z" fill="white"/>
</g>
<defs>
<clipPath id="clip0">
<rect width="127" height="21.3333" fill="white"/>
</clipPath>
<clipPath id="clip1">
<rect width="24" height="21.3333" fill="white"/>
</clipPath>
</defs>
</svg>
