<svg width="122" height="24" viewBox="0 0 122 24" fill="none" xmlns="http://www.w3.org/2000/svg">
<path d="M40.6719 11.9297C39.3854 11.5599 38.4479 11.1068 37.8594 10.5703C37.276 10.0286 36.9844 9.36198 36.9844 8.57031C36.9844 7.67448 37.3411 6.9349 38.0547 6.35156C38.7734 5.76302 39.7057 5.46875 40.8516 5.46875C41.6328 5.46875 42.3281 5.61979 42.9375 5.92188C43.5521 6.22396 44.026 6.64062 44.3594 7.17188C44.6979 7.70312 44.8672 8.28385 44.8672 8.91406H43.3594C43.3594 8.22656 43.1406 7.6875 42.7031 7.29688C42.2656 6.90104 41.6484 6.70312 40.8516 6.70312C40.112 6.70312 39.5339 6.86719 39.1172 7.19531C38.7057 7.51823 38.5 7.96875 38.5 8.54688C38.5 9.01042 38.6953 9.40365 39.0859 9.72656C39.4818 10.0443 40.151 10.3359 41.0938 10.6016C42.0417 10.8672 42.7812 11.1615 43.3125 11.4844C43.849 11.8021 44.2448 12.1745 44.5 12.6016C44.7604 13.0286 44.8906 13.5312 44.8906 14.1094C44.8906 15.0312 44.5312 15.7708 43.8125 16.3281C43.0938 16.8802 42.1328 17.1562 40.9297 17.1562C40.1484 17.1562 39.4193 17.0078 38.7422 16.7109C38.0651 16.4089 37.5417 15.9974 37.1719 15.4766C36.8073 14.9557 36.625 14.3646 36.625 13.7031H38.1328C38.1328 14.3906 38.3854 14.9349 38.8906 15.3359C39.401 15.7318 40.0807 15.9297 40.9297 15.9297C41.7214 15.9297 42.3281 15.7682 42.75 15.4453C43.1719 15.1224 43.3828 14.6823 43.3828 14.125C43.3828 13.5677 43.1875 13.138 42.7969 12.8359C42.4062 12.5286 41.6979 12.2266 40.6719 11.9297ZM56.1875 13.3906C56.0469 14.5938 55.6016 15.5234 54.8516 16.1797C54.1068 16.8307 53.1146 17.1562 51.875 17.1562C50.5312 17.1562 49.4531 16.6745 48.6406 15.7109C47.8333 14.7474 47.4297 13.4583 47.4297 11.8438V10.75C47.4297 9.69271 47.6172 8.76302 47.9922 7.96094C48.3724 7.15885 48.9089 6.54427 49.6016 6.11719C50.2943 5.6849 51.0964 5.46875 52.0078 5.46875C53.2161 5.46875 54.1849 5.80729 54.9141 6.48438C55.6432 7.15625 56.0677 8.08854 56.1875 9.28125H54.6797C54.5495 8.375 54.2656 7.71875 53.8281 7.3125C53.3958 6.90625 52.7891 6.70312 52.0078 6.70312C51.0495 6.70312 50.2969 7.05729 49.75 7.76562C49.2083 8.47396 48.9375 9.48177 48.9375 10.7891V11.8906C48.9375 13.125 49.1953 14.1068 49.7109 14.8359C50.2266 15.5651 50.9479 15.9297 51.875 15.9297C52.7083 15.9297 53.3464 15.7422 53.7891 15.3672C54.237 14.987 54.5339 14.3281 54.6797 13.3906H56.1875ZM67.9844 17H66.4766V11.7422H60.7422V17H59.2422V5.625H60.7422V10.5156H66.4766V5.625H67.9844V17ZM78.0781 11.7422H73.1484V15.7734H78.875V17H71.6484V5.625H78.7969V6.85938H73.1484V10.5156H78.0781V11.7422ZM81.7422 17V5.625H84.9531C85.9427 5.625 86.8177 5.84375 87.5781 6.28125C88.3385 6.71875 88.9245 7.34115 89.3359 8.14844C89.7526 8.95573 89.9635 9.88281 89.9688 10.9297V11.6562C89.9688 12.7292 89.7604 13.6693 89.3438 14.4766C88.9323 15.2839 88.3411 15.9036 87.5703 16.3359C86.8047 16.7682 85.9115 16.9896 84.8906 17H81.7422ZM83.2422 6.85938V15.7734H84.8203C85.9766 15.7734 86.875 15.4141 87.5156 14.6953C88.1615 13.9766 88.4844 12.9531 88.4844 11.625V10.9609C88.4844 9.66927 88.1797 8.66667 87.5703 7.95312C86.9661 7.23438 86.1068 6.86979 84.9922 6.85938H83.2422ZM101.25 5.625V13.3594C101.245 14.4323 100.906 15.3099 100.234 15.9922C99.5677 16.6745 98.6615 17.0573 97.5156 17.1406L97.1172 17.1562C95.8724 17.1562 94.8802 16.8203 94.1406 16.1484C93.401 15.4766 93.026 14.5521 93.0156 13.375V5.625H94.5V13.3281C94.5 14.151 94.7266 14.7917 95.1797 15.25C95.6328 15.7031 96.2786 15.9297 97.1172 15.9297C97.9661 15.9297 98.6146 15.7031 99.0625 15.25C99.5156 14.7969 99.7422 14.1589 99.7422 13.3359V5.625H101.25ZM106.125 15.7734H111.516V17H104.617V5.625H106.125V15.7734ZM120.656 11.7422H115.727V15.7734H121.453V17H114.227V5.625H121.375V6.85938H115.727V10.5156H120.656V11.7422Z" fill="#555555"/>
<path d="M19 19H5V8H19V19ZM19 3H18V1H16V3H8V1H6V3H5C4.46957 3 3.96086 3.21071 3.58579 3.58579C3.21071 3.96086 3 4.46957 3 5V19C3 19.5304 3.21071 20.0391 3.58579 20.4142C3.96086 20.7893 4.46957 21 5 21H19C19.5304 21 20.0391 20.7893 20.4142 20.4142C20.7893 20.0391 21 19.5304 21 19V5C21 4.46957 20.7893 3.96086 20.4142 3.58579C20.0391 3.21071 19.5304 3 19 3ZM16.53 11.06L15.47 10L10.59 14.88L8.47 12.76L7.41 13.82L10.59 17L16.53 11.06Z" fill="#555555"/>
</svg>
