<svg width="116" height="24" viewBox="0 0 116 24" fill="none" xmlns="http://www.w3.org/2000/svg">
<path d="M43.6016 14.0312H38.8359L37.7656 17H36.2188L40.5625 5.625H41.875L46.2266 17H44.6875L43.6016 14.0312ZM39.2891 12.7969H43.1562L41.2188 7.47656L39.2891 12.7969ZM57.0312 13.3906C56.8906 14.5938 56.4453 15.5234 55.6953 16.1797C54.9505 16.8307 53.9583 17.1562 52.7188 17.1562C51.375 17.1562 50.2969 16.6745 49.4844 15.7109C48.6771 14.7474 48.2734 13.4583 48.2734 11.8438V10.75C48.2734 9.69271 48.4609 8.76302 48.8359 7.96094C49.2161 7.15885 49.7526 6.54427 50.4453 6.11719C51.138 5.6849 51.9401 5.46875 52.8516 5.46875C54.0599 5.46875 55.0286 5.80729 55.7578 6.48438C56.487 7.15625 56.9115 8.08854 57.0312 9.28125H55.5234C55.3932 8.375 55.1094 7.71875 54.6719 7.3125C54.2396 6.90625 53.6328 6.70312 52.8516 6.70312C51.8932 6.70312 51.1406 7.05729 50.5938 7.76562C50.0521 8.47396 49.7812 9.48177 49.7812 10.7891V11.8906C49.7812 13.125 50.0391 14.1068 50.5547 14.8359C51.0703 15.5651 51.7917 15.9297 52.7188 15.9297C53.5521 15.9297 54.1901 15.7422 54.6328 15.3672C55.0807 14.987 55.3776 14.3281 55.5234 13.3906H57.0312ZM68.4531 13.3906C68.3125 14.5938 67.8672 15.5234 67.1172 16.1797C66.3724 16.8307 65.3802 17.1562 64.1406 17.1562C62.7969 17.1562 61.7188 16.6745 60.9062 15.7109C60.099 14.7474 59.6953 13.4583 59.6953 11.8438V10.75C59.6953 9.69271 59.8828 8.76302 60.2578 7.96094C60.638 7.15885 61.1745 6.54427 61.8672 6.11719C62.5599 5.6849 63.362 5.46875 64.2734 5.46875C65.4818 5.46875 66.4505 5.80729 67.1797 6.48438C67.9089 7.15625 68.3333 8.08854 68.4531 9.28125H66.9453C66.8151 8.375 66.5312 7.71875 66.0938 7.3125C65.6615 6.90625 65.0547 6.70312 64.2734 6.70312C63.3151 6.70312 62.5625 7.05729 62.0156 7.76562C61.474 8.47396 61.2031 9.48177 61.2031 10.7891V11.8906C61.2031 13.125 61.4609 14.1068 61.9766 14.8359C62.4922 15.5651 63.2135 15.9297 64.1406 15.9297C64.974 15.9297 65.612 15.7422 66.0547 15.3672C66.5026 14.987 66.7995 14.3281 66.9453 13.3906H68.4531ZM80.2578 11.6797C80.2578 12.7943 80.0703 13.7682 79.6953 14.6016C79.3203 15.4297 78.7891 16.0625 78.1016 16.5C77.4141 16.9375 76.612 17.1562 75.6953 17.1562C74.7995 17.1562 74.0052 16.9375 73.3125 16.5C72.6198 16.0573 72.0807 15.4297 71.6953 14.6172C71.3151 13.7995 71.1198 12.8542 71.1094 11.7812V10.9609C71.1094 9.86719 71.2995 8.90104 71.6797 8.0625C72.0599 7.22396 72.5964 6.58333 73.2891 6.14062C73.987 5.69271 74.7839 5.46875 75.6797 5.46875C76.5911 5.46875 77.3932 5.6901 78.0859 6.13281C78.7839 6.57031 79.3203 7.20833 79.6953 8.04688C80.0703 8.88021 80.2578 9.85156 80.2578 10.9609V11.6797ZM78.7656 10.9453C78.7656 9.59635 78.4948 8.5625 77.9531 7.84375C77.4115 7.11979 76.6536 6.75781 75.6797 6.75781C74.7318 6.75781 73.9844 7.11979 73.4375 7.84375C72.8958 8.5625 72.6172 9.5625 72.6016 10.8438V11.6797C72.6016 12.987 72.875 14.0156 73.4219 14.7656C73.974 15.5104 74.7318 15.8828 75.6953 15.8828C76.6641 15.8828 77.4141 15.5312 77.9453 14.8281C78.4766 14.1198 78.75 13.1068 78.7656 11.7891V10.9453ZM91.5156 5.625V13.3594C91.5104 14.4323 91.1719 15.3099 90.5 15.9922C89.8333 16.6745 88.9271 17.0573 87.7812 17.1406L87.3828 17.1562C86.138 17.1562 85.1458 16.8203 84.4062 16.1484C83.6667 15.4766 83.2917 14.5521 83.2812 13.375V5.625H84.7656V13.3281C84.7656 14.151 84.9922 14.7917 85.4453 15.25C85.8984 15.7031 86.5443 15.9297 87.3828 15.9297C88.2318 15.9297 88.8802 15.7031 89.3281 15.25C89.7812 14.7969 90.0078 14.1589 90.0078 13.3359V5.625H91.5156ZM103.625 17H102.117L96.3906 8.23438V17H94.8828V5.625H96.3906L102.133 14.4297V5.625H103.625V17ZM114.914 6.85938H111.258V17H109.766V6.85938H106.117V5.625H114.914V6.85938Z" fill="#114483"/>
<path d="M2 17V20H10V18.11H3.9V17C3.9 16.36 7.03 14.9 10 14.9C10.96 14.91 11.91 15.04 12.83 15.28L14.35 13.76C12.95 13.29 11.5 13.03 10 13C7.33 13 2 14.33 2 17ZM10 4C7.79 4 6 5.79 6 8C6 10.21 7.79 12 10 12C12.21 12 14 10.21 14 8C14 5.79 12.21 4 10 4ZM10 10C8.9 10 8 9.11 8 8C8 6.89 8.9 6 10 6C11.1 6 12 6.9 12 8C12 9.1 11.11 10 10 10ZM21.7 13.35L20.7 14.35L18.65 12.35L19.65 11.35C19.7528 11.2492 19.891 11.1928 20.035 11.1928C20.179 11.1928 20.3172 11.2492 20.42 11.35L21.7 12.63C21.91 12.84 21.91 13.19 21.7 13.4V13.35ZM12 18.94L18.06 12.88L20.11 14.88L14.11 20.95H12V18.94Z" fill="#114483"/>
</svg>
